<?xml version="1.0" encoding="UTF-8"?>
<svg xmlns="http://www.w3.org/2000/svg" xmlns:xlink="http://www.w3.org/1999/xlink" width="480pt" height="480pt" viewBox="0 0 480 480" version="1.1">
<g id="surface1">
<path style=" stroke:none;fill-rule:nonzero;fill:#107E7D;fill-opacity:1;" d="M 110.527344 31.578125 C 84.375 31.578125 63.15625 52.796875 63.15625 78.949219 C 63.15625 105.097656 84.375 126.316406 110.527344 126.316406 C 136.675781 126.316406 157.894531 105.097656 157.894531 78.949219 C 157.894531 52.796875 136.675781 31.578125 110.527344 31.578125 Z M 363.15625 31.578125 C 337.007813 31.578125 315.789063 52.796875 315.789063 78.949219 C 315.789063 105.097656 337.007813 126.316406 363.15625 126.316406 C 389.308594 126.316406 410.527344 105.097656 410.527344 78.949219 C 410.527344 52.796875 389.308594 31.578125 363.15625 31.578125 Z M 410.527344 94.738281 C 410.527344 94.738281 409.355469 117.1875 422.367188 130.261719 C 435.445313 143.277344 457.894531 142.105469 457.894531 142.105469 C 457.894531 142.105469 459.066406 119.65625 446.050781 106.578125 C 432.976563 93.566406 410.527344 94.738281 410.527344 94.738281 Z M 94.738281 157.894531 C 68.769531 157.894531 47.367188 179.296875 47.367188 205.261719 L 47.367188 300 C 47.308594 304.195313 48.972656 308.328125 51.933594 311.285156 C 54.894531 314.308594 58.902344 315.972656 63.15625 316.035156 L 63.15625 410.03125 C 63.15625 418.976563 70.496094 426.316406 79.441406 426.316406 C 88.074219 426.316406 95.167969 419.65625 95.722656 411.082031 L 102.632813 307.339844 C 102.941406 303.207031 106.394531 300 110.527344 300 C 114.660156 300 118.113281 303.207031 118.421875 307.402344 L 125.328125 411.082031 C 125.882813 419.65625 132.976563 426.316406 141.613281 426.316406 C 150.554688 426.316406 157.894531 418.976563 157.894531 410.03125 L 157.894531 318.625 C 158.882813 324.363281 162.953125 329.113281 168.503906 330.960938 C 173.992188 332.8125 180.097656 331.457031 184.355469 327.445313 C 184.539063 327.261719 184.664063 327.136719 184.847656 326.953125 L 196.195313 315.605469 L 189.472656 409.417969 C 188.917969 418.113281 195.457031 425.699219 204.152344 426.316406 C 212.847656 426.933594 220.4375 420.332031 221.050781 411.636719 L 221.113281 410.527344 L 227.21875 367.785156 C 228.761719 356.621094 244.921875 356.621094 246.527344 367.785156 L 252.570313 410.03125 L 252.632813 411.636719 C 253.25 420.332031 260.835938 426.933594 269.53125 426.316406 C 278.226563 425.699219 284.765625 418.113281 284.210938 409.417969 L 277.488281 315.605469 L 288.527344 326.644531 C 288.589844 326.769531 288.714844 326.828125 288.773438 326.890625 L 288.835938 326.953125 C 288.960938 327.136719 289.144531 327.261719 289.328125 327.386719 C 293.523438 331.457031 299.628906 332.8125 305.242188 330.960938 C 310.792969 329.113281 314.863281 324.363281 315.789063 318.566406 L 315.789063 410.03125 C 315.789063 418.976563 323.128906 426.316406 332.074219 426.316406 C 340.707031 426.316406 347.800781 419.65625 348.355469 411.082031 L 353.722656 331.578125 L 372.59375 331.578125 L 377.960938 411.082031 C 378.515625 419.65625 385.609375 426.316406 394.242188 426.316406 C 403.1875 426.316406 410.527344 418.976563 410.527344 410.03125 L 410.527344 331.578125 L 426.316406 331.578125 C 431.125 331.578125 435.628906 329.421875 438.652344 325.65625 C 441.613281 321.957031 442.785156 317.023438 441.734375 312.335938 L 416.941406 201.070313 C 413.855469 187.191406 405.222656 176.398438 393.8125 169.429688 C 386.101563 162.765625 376.296875 158.636719 365.441406 158.140625 C 364.699219 157.957031 363.898438 157.894531 363.15625 157.894531 C 337.4375 157.894531 314.925781 175.90625 309.375 201.070313 L 290.625 285.257813 C 276.378906 274.464844 258.921875 268.421875 240.851563 268.421875 L 232.832031 268.421875 C 215.933594 268.421875 199.652344 273.664063 185.957031 283.160156 L 176.707031 200.019531 C 174.054688 176.152344 153.640625 157.894531 129.644531 157.894531 Z M 236.84375 189.472656 C 219.386719 189.472656 205.261719 203.597656 205.261719 221.050781 C 205.261719 238.507813 219.386719 252.632813 236.84375 252.632813 C 254.296875 252.632813 268.421875 238.507813 268.421875 221.050781 C 268.421875 203.597656 254.296875 189.472656 236.84375 189.472656 Z "/>
</g>
</svg>
