<?xml version="1.0" encoding="UTF-8"?>
<svg xmlns="http://www.w3.org/2000/svg" xmlns:xlink="http://www.w3.org/1999/xlink" width="96pt" height="96pt" viewBox="0 0 96 96" version="1.1">
<g id="surface1">
<path style=" stroke:none;fill-rule:nonzero;fill:#107E7D;fill-opacity:1;" d="M 40 8 C 22.375 8 8 22.375 8 40 C 8 57.625 22.375 72 40 72 C 48.09375 72 55.484375 68.953125 61.125 63.953125 L 64 66.828125 L 64 72 L 78.34375 86.34375 C 80.546875 88.546875 84.140625 88.546875 86.34375 86.34375 C 88.546875 84.140625 88.546875 80.546875 86.34375 78.34375 L 72 64 L 66.828125 64 L 63.953125 61.125 C 68.953125 55.484375 72 48.09375 72 40 C 72 22.375 57.625 8 40 8 Z M 40 16 C 53.296875 16 64 26.703125 64 40 C 64 53.296875 53.296875 64 40 64 C 26.703125 64 16 53.296875 16 40 C 16 26.703125 26.703125 16 40 16 Z M 28 32 C 25.796875 32 24 33.796875 24 36 C 24 38.203125 25.796875 40 28 40 C 30.203125 40 32 38.203125 32 36 C 32 33.796875 30.203125 32 28 32 Z M 52 32 C 49.796875 32 48 33.796875 48 36 C 48 38.203125 49.796875 40 52 40 C 54.203125 40 56 38.203125 56 36 C 56 33.796875 54.203125 32 52 32 Z M 40 43.984375 C 36.375 43.984375 32.75 45.078125 29.671875 47.28125 C 27.875 48.5625 27.453125 51.0625 28.75 52.859375 C 30.03125 54.65625 32.53125 55.078125 34.328125 53.796875 C 37.640625 51.421875 42.359375 51.421875 45.671875 53.796875 C 47.46875 55.078125 49.96875 54.65625 51.25 52.859375 C 52.546875 51.0625 52.125 48.5625 50.328125 47.28125 C 47.25 45.078125 43.625 43.984375 40 43.984375 Z "/>
</g>
</svg>
